{
    "asset" : {
        "generator" : "Khronos glTF Blender I/O v3.2.40",
        "version" : "2.0"
    },
    "scene" : 0,
    "scenes" : [
        {
            "name" : "Scene",
            "nodes" : [
                0,
                1
            ]
        }
    ],
    "nodes" : [
        {
            "mesh" : 0,
            "name" : "Plane",
            "rotation" : [
                -0.7997846007347107,
                -0.046599093824625015,
                -0.0341440886259079,
                0.5975009202957153
            ],
            "translation" : [
                -0.062172383069992065,
                1.559736967086792,
                -0.29037749767303467
            ]
        },
        {
            "mesh" : 1,
            "name" : "Plane.001",
            "rotation" : [
                -0.6192710399627686,
                0.3639497756958008,
                -0.3589074909687042,
                0.596011221408844
            ],
            "scale" : [
                0.12262997776269913,
                0.1226300448179245,
                0.1226300448179245
            ],
            "translation" : [
                0.2025311291217804,
                0.08686316013336182,
                0.04415102303028107
            ]
        }
    ],
    "materials" : [
        {
            "doubleSided" : true,
            "name" : "Material.001",
            "pbrMetallicRoughness" : {
                "baseColorTexture" : {
                    "index" : 0
                },
                "metallicFactor" : 0,
                "roughnessFactor" : 0.5
            }
        },
        {
            "doubleSided" : true,
            "name" : "Material.002",
            "pbrMetallicRoughness" : {
                "baseColorTexture" : {
                    "index" : 1
                },
                "metallicFactor" : 0,
                "roughnessFactor" : 0.5
            }
        }
    ],
    "meshes" : [
        {
            "name" : "Plane",
            "primitives" : [
                {
                    "attributes" : {
                        "POSITION" : 0,
                        "NORMAL" : 1,
                        "TEXCOORD_0" : 2
                    },
                    "indices" : 3,
                    "material" : 0
                }
            ]
        },
        {
            "name" : "Plane.001",
            "primitives" : [
                {
                    "attributes" : {
                        "POSITION" : 4,
                        "NORMAL" : 5,
                        "TEXCOORD_0" : 6
                    },
                    "indices" : 7,
                    "material" : 1
                }
            ]
        }
    ],
    "textures" : [
        {
            "sampler" : 0,
            "source" : 0
        },
        {
            "sampler" : 0,
            "source" : 0
        }
    ],
    "images" : [
        {
            "bufferView" : 4,
            "mimeType" : "image/png",
            "name" : "leaf-texture-clipart-17"
        }
    ],
    "accessors" : [
        {
            "bufferView" : 0,
            "componentType" : 5126,
            "count" : 104,
            "max" : [
                2.4419851303100586,
                0.16152843832969666,
                7.932583332061768
            ],
            "min" : [
                -2.4688966274261475,
                -0.8029677271842957,
                -1.6564116477966309
            ],
            "type" : "VEC3"
        },
        {
            "bufferView" : 1,
            "componentType" : 5126,
            "count" : 104,
            "type" : "VEC3"
        },
        {
            "bufferView" : 2,
            "componentType" : 5126,
            "count" : 104,
            "type" : "VEC2"
        },
        {
            "bufferView" : 3,
            "componentType" : 5123,
            "count" : 156,
            "type" : "SCALAR"
        },
        {
            "bufferView" : 5,
            "componentType" : 5126,
            "count" : 94,
            "max" : [
                2.222805976867676,
                0.12939848005771637,
                7.932583332061768
            ],
            "min" : [
                -2.243231773376465,
                -0.7892855405807495,
                -1.5916308164596558
            ],
            "type" : "VEC3"
        },
        {
            "bufferView" : 6,
            "componentType" : 5126,
            "count" : 94,
            "type" : "VEC3"
        },
        {
            "bufferView" : 7,
            "componentType" : 5126,
            "count" : 94,
            "type" : "VEC2"
        },
        {
            "bufferView" : 8,
            "componentType" : 5123,
            "count" : 144,
            "type" : "SCALAR"
        }
    ],
    "bufferViews" : [
        {
            "buffer" : 0,
            "byteLength" : 1248,
            "byteOffset" : 0
        },
        {
            "buffer" : 0,
            "byteLength" : 1248,
            "byteOffset" : 1248
        },
        {
            "buffer" : 0,
            "byteLength" : 832,
            "byteOffset" : 2496
        },
        {
            "buffer" : 0,
            "byteLength" : 312,
            "byteOffset" : 3328
        },
        {
            "buffer" : 0,
            "byteLength" : 2705708,
            "byteOffset" : 3640
        },
        {
            "buffer" : 0,
            "byteLength" : 1128,
            "byteOffset" : 2709348
        },
        {
            "buffer" : 0,
            "byteLength" : 1128,
            "byteOffset" : 2710476
        },
        {
            "buffer" : 0,
            "byteLength" : 752,
            "byteOffset" : 2711604
        },
        {
            "buffer" : 0,
            "byteLength" : 288,
            "byteOffset" : 2712356
        }
    ],
    "samplers" : [
        {
            "magFilter" : 9729,
            "minFilter" : 9987
        }
    ],
    "buffers" : [
        {
            "byteLength" : 2712644,
            "uri" : "data:application/octet-stream;base64,"
        }
    ]
}
