{
    "asset" : {
        "generator" : "Khronos glTF Blender I/O v3.2.40",
        "version" : "2.0"
    },
    "scene" : 0,
    "scenes" : [
        {
            "name" : "Scene",
            "nodes" : [
                0,
                1,
                2,
                3,
                4,
                5,
                6,
                7,
                8,
                9,
                10,
                11,
                12,
                13,
                14,
                15,
                16
            ]
        }
    ],
    "nodes" : [
        {
            "mesh" : 0,
            "name" : "FEUILLE",
            "translation" : [
                0,
                -0.3886730968952179,
                0
            ]
        },
        {
            "mesh" : 1,
            "name" : "tIGE"
        },
        {
            "name" : "Empty",
            "rotation" : [
                0,
                0.6142117381095886,
                0,
                0.7891412973403931
            ],
            "scale" : [
                0.9459684491157532,
                0.9459684491157532,
                0.9459684491157532
            ],
            "translation" : [
                0,
                1.0073659420013428,
                0
            ]
        },
        {
            "name" : "BezierCurve"
        },
        {
            "mesh" : 2,
            "name" : "FEUILLE.001",
            "translation" : [
                12.725042343139648,
                -0.45570531487464905,
                0
            ]
        },
        {
            "mesh" : 3,
            "name" : "tIGE.001",
            "scale" : [
                1,
                0.7357996702194214,
                1
            ],
            "translation" : [
                12.725042343139648,
                0,
                0
            ]
        },
        {
            "name" : "Empty.001",
            "rotation" : [
                0,
                0.6142117381095886,
                0,
                0.7891412973403931
            ],
            "scale" : [
                1.0117523670196533,
                1.0117523670196533,
                1.0117523670196533
            ],
            "translation" : [
                12.725042343139648,
                0.36606234312057495,
                0
            ]
        },
        {
            "name" : "BezierCurve.001",
            "translation" : [
                12.725042343139648,
                0,
                0
            ]
        },
        {
            "mesh" : 4,
            "name" : "FEUILLE.002",
            "translation" : [
                23.45099449157715,
                -0.3306877613067627,
                0
            ]
        },
        {
            "mesh" : 5,
            "name" : "tIGE.002",
            "scale" : [
                1,
                1.0314067602157593,
                1
            ],
            "translation" : [
                23.45099449157715,
                0,
                0
            ]
        },
        {
            "name" : "Empty.002",
            "rotation" : [
                0,
                0.6142117381095886,
                0,
                0.7891412973403931
            ],
            "scale" : [
                1.0117523670196533,
                1.0117523670196533,
                1.0117523670196533
            ],
            "translation" : [
                23.45099449157715,
                0.5070638656616211,
                0
            ]
        },
        {
            "name" : "BezierCurve.002",
            "translation" : [
                23.45099449157715,
                0,
                0
            ]
        },
        {
            "mesh" : 6,
            "name" : "tIGE.003",
            "scale" : [
                1,
                0.7357996702194214,
                1
            ],
            "translation" : [
                -10.728265762329102,
                0,
                0
            ]
        },
        {
            "name" : "BezierCurve.003",
            "translation" : [
                -10.728265762329102,
                0,
                0
            ]
        },
        {
            "mesh" : 7,
            "name" : "FEUILLE.003",
            "translation" : [
                -10.655109405517578,
                -0.20794527232646942,
                0
            ]
        },
        {
            "name" : "Empty.003",
            "rotation" : [
                0,
                0.6142117381095886,
                0,
                0.7891412973403931
            ],
            "scale" : [
                1.0117523670196533,
                1.0117523670196533,
                1.0117523670196533
            ],
            "translation" : [
                -10.655109405517578,
                0.36606234312057495,
                0
            ]
        },
        {
            "name" : "BezierCurve.004",
            "translation" : [
                -10.655109405517578,
                0,
                0
            ]
        }
    ],
    "meshes" : [
        {
            "name" : "Circle",
            "primitives" : [
                {
                    "attributes" : {
                        "POSITION" : 0,
                        "NORMAL" : 1,
                        "TEXCOORD_0" : 2
                    },
                    "indices" : 3
                }
            ]
        },
        {
            "name" : "Circle.001",
            "primitives" : [
                {
                    "attributes" : {
                        "POSITION" : 4,
                        "NORMAL" : 5,
                        "TEXCOORD_0" : 6
                    },
                    "indices" : 7
                }
            ]
        },
        {
            "name" : "Circle.002",
            "primitives" : [
                {
                    "attributes" : {
                        "POSITION" : 8,
                        "NORMAL" : 9,
                        "TEXCOORD_0" : 10
                    },
                    "indices" : 11
                }
            ]
        },
        {
            "name" : "Circle.003",
            "primitives" : [
                {
                    "attributes" : {
                        "POSITION" : 12,
                        "NORMAL" : 13,
                        "TEXCOORD_0" : 14
                    },
                    "indices" : 7
                }
            ]
        },
        {
            "name" : "Circle.004",
            "primitives" : [
                {
                    "attributes" : {
                        "POSITION" : 15,
                        "NORMAL" : 16,
                        "TEXCOORD_0" : 17
                    },
                    "indices" : 11
                }
            ]
        },
        {
            "name" : "Circle.005",
            "primitives" : [
                {
                    "attributes" : {
                        "POSITION" : 18,
                        "NORMAL" : 19,
                        "TEXCOORD_0" : 20
                    },
                    "indices" : 7
                }
            ]
        },
        {
            "name" : "Circle.006",
            "primitives" : [
                {
                    "attributes" : {
                        "POSITION" : 21,
                        "NORMAL" : 22,
                        "TEXCOORD_0" : 23
                    },
                    "indices" : 7
                }
            ]
        },
        {
            "name" : "Circle.007",
            "primitives" : [
                {
                    "attributes" : {
                        "POSITION" : 24,
                        "NORMAL" : 25,
                        "TEXCOORD_0" : 26
                    },
                    "indices" : 11
                }
            ]
        }
    ],
    "accessors" : [
        {
            "bufferView" : 0,
            "componentType" : 5126,
            "count" : 64,
            "max" : [
                6.689492225646973,
                2.297781467437744,
                1.2323288917541504
            ],
            "min" : [
                -0.025926172733306885,
                0.004185974597930908,
                -1.2323282957077026
            ],
            "type" : "VEC3"
        },
        {
            "bufferView" : 1,
            "componentType" : 5126,
            "count" : 64,
            "type" : "VEC3"
        },
        {
            "bufferView" : 2,
            "componentType" : 5126,
            "count" : 64,
            "type" : "VEC2"
        },
        {
            "bufferView" : 3,
            "componentType" : 5123,
            "count" : 276,
            "type" : "SCALAR"
        },
        {
            "bufferView" : 4,
            "componentType" : 5126,
            "count" : 216,
            "max" : [
                0.12342780828475952,
                13.83257007598877,
                0.12342780828475952
            ],
            "min" : [
                -0.12342780828475952,
                0,
                -0.12342780828475952
            ],
            "type" : "VEC3"
        },
        {
            "bufferView" : 5,
            "componentType" : 5126,
            "count" : 216,
            "type" : "VEC3"
        },
        {
            "bufferView" : 6,
            "componentType" : 5126,
            "count" : 216,
            "type" : "VEC2"
        },
        {
            "bufferView" : 7,
            "componentType" : 5123,
            "count" : 1248,
            "type" : "SCALAR"
        },
        {
            "bufferView" : 8,
            "componentType" : 5126,
            "count" : 64,
            "max" : [
                3.292541265487671,
                2.5159695148468018,
                0.24280044436454773
            ],
            "min" : [
                -0.012270689010620117,
                0.007485255599021912,
                -0.24280010163784027
            ],
            "type" : "VEC3"
        },
        {
            "bufferView" : 9,
            "componentType" : 5126,
            "count" : 64,
            "type" : "VEC3"
        },
        {
            "bufferView" : 10,
            "componentType" : 5126,
            "count" : 64,
            "type" : "VEC2"
        },
        {
            "bufferView" : 11,
            "componentType" : 5123,
            "count" : 276,
            "type" : "SCALAR"
        },
        {
            "bufferView" : 12,
            "componentType" : 5126,
            "count" : 216,
            "max" : [
                0.12342780828475952,
                13.83257007598877,
                0.12342780828475952
            ],
            "min" : [
                -0.12342780828475952,
                0,
                -0.12342780828475952
            ],
            "type" : "VEC3"
        },
        {
            "bufferView" : 13,
            "componentType" : 5126,
            "count" : 216,
            "type" : "VEC3"
        },
        {
            "bufferView" : 14,
            "componentType" : 5126,
            "count" : 216,
            "type" : "VEC2"
        },
        {
            "bufferView" : 15,
            "componentType" : 5126,
            "count" : 64,
            "max" : [
                4.618336200714111,
                3.1191844940185547,
                1.28608238697052
            ],
            "min" : [
                0.017928600311279297,
                0.024429798126220703,
                -1.2860816717147827
            ],
            "type" : "VEC3"
        },
        {
            "bufferView" : 16,
            "componentType" : 5126,
            "count" : 64,
            "type" : "VEC3"
        },
        {
            "bufferView" : 17,
            "componentType" : 5126,
            "count" : 64,
            "type" : "VEC2"
        },
        {
            "bufferView" : 18,
            "componentType" : 5126,
            "count" : 216,
            "max" : [
                0.12342780828475952,
                13.83257007598877,
                0.12342780828475952
            ],
            "min" : [
                -0.12342780828475952,
                0,
                -0.12342780828475952
            ],
            "type" : "VEC3"
        },
        {
            "bufferView" : 19,
            "componentType" : 5126,
            "count" : 216,
            "type" : "VEC3"
        },
        {
            "bufferView" : 20,
            "componentType" : 5126,
            "count" : 216,
            "type" : "VEC2"
        },
        {
            "bufferView" : 21,
            "componentType" : 5126,
            "count" : 216,
            "max" : [
                0.12342780828475952,
                13.83257007598877,
                0.12342780828475952
            ],
            "min" : [
                -0.12342780828475952,
                0,
                -0.12342780828475952
            ],
            "type" : "VEC3"
        },
        {
            "bufferView" : 22,
            "componentType" : 5126,
            "count" : 216,
            "type" : "VEC3"
        },
        {
            "bufferView" : 23,
            "componentType" : 5126,
            "count" : 216,
            "type" : "VEC2"
        },
        {
            "bufferView" : 24,
            "componentType" : 5126,
            "count" : 64,
            "max" : [
                3.292541265487671,
                2.5159695148468018,
                0.24280044436454773
            ],
            "min" : [
                -0.012270689010620117,
                0.007485255599021912,
                -0.24280010163784027
            ],
            "type" : "VEC3"
        },
        {
            "bufferView" : 25,
            "componentType" : 5126,
            "count" : 64,
            "type" : "VEC3"
        },
        {
            "bufferView" : 26,
            "componentType" : 5126,
            "count" : 64,
            "type" : "VEC2"
        }
    ],
    "bufferViews" : [
        {
            "buffer" : 0,
            "byteLength" : 768,
            "byteOffset" : 0
        },
        {
            "buffer" : 0,
            "byteLength" : 768,
            "byteOffset" : 768
        },
        {
            "buffer" : 0,
            "byteLength" : 512,
            "byteOffset" : 1536
        },
        {
            "buffer" : 0,
            "byteLength" : 552,
            "byteOffset" : 2048
        },
        {
            "buffer" : 0,
            "byteLength" : 2592,
            "byteOffset" : 2600
        },
        {
            "buffer" : 0,
            "byteLength" : 2592,
            "byteOffset" : 5192
        },
        {
            "buffer" : 0,
            "byteLength" : 1728,
            "byteOffset" : 7784
        },
        {
            "buffer" : 0,
            "byteLength" : 2496,
            "byteOffset" : 9512
        },
        {
            "buffer" : 0,
            "byteLength" : 768,
            "byteOffset" : 12008
        },
        {
            "buffer" : 0,
            "byteLength" : 768,
            "byteOffset" : 12776
        },
        {
            "buffer" : 0,
            "byteLength" : 512,
            "byteOffset" : 13544
        },
        {
            "buffer" : 0,
            "byteLength" : 552,
            "byteOffset" : 14056
        },
        {
            "buffer" : 0,
            "byteLength" : 2592,
            "byteOffset" : 14608
        },
        {
            "buffer" : 0,
            "byteLength" : 2592,
            "byteOffset" : 17200
        },
        {
            "buffer" : 0,
            "byteLength" : 1728,
            "byteOffset" : 19792
        },
        {
            "buffer" : 0,
            "byteLength" : 768,
            "byteOffset" : 21520
        },
        {
            "buffer" : 0,
            "byteLength" : 768,
            "byteOffset" : 22288
        },
        {
            "buffer" : 0,
            "byteLength" : 512,
            "byteOffset" : 23056
        },
        {
            "buffer" : 0,
            "byteLength" : 2592,
            "byteOffset" : 23568
        },
        {
            "buffer" : 0,
            "byteLength" : 2592,
            "byteOffset" : 26160
        },
        {
            "buffer" : 0,
            "byteLength" : 1728,
            "byteOffset" : 28752
        },
        {
            "buffer" : 0,
            "byteLength" : 2592,
            "byteOffset" : 30480
        },
        {
            "buffer" : 0,
            "byteLength" : 2592,
            "byteOffset" : 33072
        },
        {
            "buffer" : 0,
            "byteLength" : 1728,
            "byteOffset" : 35664
        },
        {
            "buffer" : 0,
            "byteLength" : 768,
            "byteOffset" : 37392
        },
        {
            "buffer" : 0,
            "byteLength" : 768,
            "byteOffset" : 38160
        },
        {
            "buffer" : 0,
            "byteLength" : 512,
            "byteOffset" : 38928
        }
    ],
    "buffers" : [
        {
            "byteLength" : 39440,
            "uri" : "data:application/octet-stream;base64,"
        }
    ]
}
